# xmcd CD database file
#
# Track frame offsets:
#	150
#	12613
#	26162
#	44306
#	54256
#	70150
#	89627
#	114313
#	131315
#	146965
#	161698
#	177226
#	191837
#	202274
#	214140
#	232189
#	247947
#
# Disc length: 3779 seconds
#
# Revision: 0
# Processed by: cddbd v1.5.2PL0 Copyright (c) Steve Scherf et al.
# Submitted via: CDex 1.70beta2
#
DISCID=020ec111
DTITLE=Viktor Gernot feat. Richard Oesterreicher Bigband - Big Band Dreams
DYEAR=2007
DGENRE=Jazz
TTITLE0=The Lady Is A Tramp
TTITLE1=For Once In My Life
TTITLE2=I Get A Kick Out Of You
TTITLE3=Have You Met Miss Jones
TTITLE4=Where Or When
TTITLE5=Mack The Knife
TTITLE6=Angel Eyes
TTITLE7=I've Got You Under My Skin
TTITLE8=Learnin' The Blues
TTITLE9=Come Fly With Me
TTITLE10=They Can't Take That Away
TTITLE11=New York
TTITLE12=Day By Day
TTITLE13=It's Allright With Me
TTITLE14=My Way
TTITLE15=That's Life
TTITLE16=One For My Baby
EXTD=YEAR: 2007
EXTT0=
EXTT1=
EXTT2=
EXTT3=
EXTT4=
EXTT5=
EXTT6=
EXTT7=
EXTT8=
EXTT9=
EXTT10=
EXTT11=
EXTT12=
EXTT13=
EXTT14=
EXTT15=
EXTT16=
PLAYORDER=
